<svg width="242" height="66" xmlns="http://www.w3.org/2000/svg" xmlns:xlink="http://www.w3.org/1999/xlink" xml:space="preserve" overflow="hidden"><defs><clipPath id="clip0"><rect x="519" y="327" width="242" height="66"/></clipPath></defs><g clip-path="url(#clip0)" transform="translate(-519 -327)"><path d="M659.6 355.1 632 355.1 632 327.6 648.2 327.6 648.2 338.6 659.7 338.6 659.7 355.1 659.6 355.1ZM632.3 354.7 659.2 354.7 659.2 339.2 647.7 339.2 647.7 328.2 632.3 328.2 632.3 354.7ZM658.2 353.7 633.3 353.7 633.3 328.9 646.7 328.9 646.7 339.9 658.2 339.9 658.2 353.7Z" fill="#FFFFFF"/><path d="M688.4 355.3 661.5 355.3 674.9 327.4 688.4 355.3ZM662.3 354.9 687.8 354.9 675 328.6 662.3 354.9ZM686.2 353.9 663.6 353.9 674.9 330.9 686.2 353.9Z" fill="#FFFFFF"/><path d="M713.7 355.5 707 355.5C705.3 355.5 703.7 355.5 702.1 355.3 700.9 355.3 700 355.1 699.2 354.9 698.4 354.7 697.5 354.5 696.5 353.9 694.5 353.1 693.2 351.8 692 350.2 690.8 348.7 690 346.7 689.9 344.8 689.7 343.6 689.7 342.7 689.7 341.5 689.7 340.9 689.7 340.3 689.7 339.8 689.9 338.1 690.3 336.3 690.9 335 691.3 334 691.9 333.1 692.4 332.5 693.6 330.8 694.9 329.8 696.5 329 697.1 328.6 697.9 328.4 698.6 328.2 698.8 328.2 699.2 328 700 328 700.8 327.8 701.4 327.8 701.7 327.8 702.9 327.8 704.2 327.6 705.8 327.6L713.6 327.6 713.6 340.6 713.6 355.5 713.7 355.5ZM705.9 328C704.3 328 703.2 328 701.8 328.2 701.4 328.2 700.8 328.2 700.3 328.4 699.5 328.6 699.1 328.6 699.1 328.6L699.1 328.6C698.3 328.8 697.6 329 697 329.4 695.4 330.2 694.1 331.3 692.9 332.7 692.3 333.5 691.9 334.2 691.3 335.2 690.7 336.6 690.3 338.3 690.1 340 690.1 340.6 690.1 341.2 690.1 341.5 690.1 342.7 690.3 343.8 690.5 344.8 690.9 346.7 691.5 348.5 692.6 350 693.6 351.5 695.1 352.7 696.9 353.5 697.9 353.9 698.6 354.3 699.4 354.3 700.2 354.5 701.1 354.7 702.3 354.7 703.7 354.7 705.2 354.9 707 354.9L713.2 354.9 713.2 340.4 713.2 328 705.9 328ZM712.3 353.9 707 353.9C705.3 353.9 703.7 353.9 702.3 353.7 701.3 353.7 700.3 353.5 699.6 353.3 698.8 353.1 698 352.9 697.3 352.5 695.7 351.7 694.4 350.6 693.4 349.2 692.4 347.7 691.7 346.1 691.5 344.4 691.3 343.4 691.1 342.5 691.1 341.3 691.1 340.7 691.1 340.3 691.1 339.8 691.3 338.3 691.7 336.7 692.3 335.3 692.7 334.3 693.3 333.6 693.7 333 694.7 331.8 695.8 330.9 697.4 330.1 698 329.9 698.6 329.5 699.4 329.3L699.8 329.1C700 329.1 700.2 329.1 700.6 328.9 701.4 328.9 701.8 328.7 702.2 328.7L702.4 328.7C703.6 328.7 704.9 328.5 706.3 328.5L712.7 328.5 712.7 340.1 712.7 353.8 712.3 353.9 712.3 353.9Z" fill="#FFFFFF"/><path d="M739.9 355.3 716.5 355.3 716.5 327.6 740 327.6 733 341.7 739.9 355.3ZM717 354.7 739.2 354.7 732.6 341.7 739.4 328.2 717.2 328.2 717.2 354.7 717 354.7ZM737.6 353.7 717.9 353.7 717.9 328.9 737.7 328.9 731.5 341.7 737.6 353.7Z" fill="#FFFFFF"/><path d="M663.6 392.4 636.7 392.4 650.1 364.5 663.6 392.4ZM637.6 392 663.1 392 650.3 365.9 637.6 392ZM661.5 391.1 639.1 391.1 650.4 368.1 661.5 391.1Z" fill="#FFFFFF"/><path d="M693.6 392.6 665.6 392.6 665.6 364.7 680 370 693.6 364.8 693.6 392.6ZM666 392 693 392 693 365.3 679.8 370.3 666 365.3 666 392ZM692.3 391.1 667 391.1 667 366.7 680 371.5 692.3 366.9 692.3 391.1Z" fill="#FFFFFF"/><path d="M635.2 392.6 607 392.6 607 364.7 621.4 369.9 635 364.7 635 392.6 635.2 392.6ZM607.6 392 634.6 392 634.6 365.3 621.4 370.3 607.6 365.3 607.6 392ZM633.7 391.1 608.4 391.1 608.4 366.7 621.4 371.5 633.7 366.9 633.7 391.1Z" fill="#FFFFFF"/><path d="M697.1 392.6 697.1 364.9 709.4 364.7C710.6 364.7 711.5 364.7 712.3 364.7 713.1 364.7 713.7 364.9 714.2 364.9 714.8 364.9 715.4 365.1 715.9 365.5 717.1 365.9 718 366.7 718.8 367.4 719.6 368.4 720 369.3 720.2 370.3 720.4 370.9 720.4 371.5 720.4 372.2L720.4 373C720.4 374 720 374.9 719.6 375.7 719.4 376.3 719 376.7 718.6 377.1 718 377.7 717.6 378.1 716.9 378.5 717.7 378.9 718.3 379.5 718.9 380 719.7 381 720.1 381.9 720.3 382.9 720.5 383.5 720.5 384.1 720.5 384.8 720.5 385 720.5 385.4 720.5 385.8 720.5 386.8 720.1 387.5 719.7 388.5 719.5 389.1 719.1 389.5 718.7 389.9 717.9 390.7 717.2 391.3 716.2 391.8 715.8 392 715.2 392.2 714.8 392.2 714.6 392.2 714.4 392.4 714 392.4 713.4 392.4 713.2 392.4 713 392.4 712.2 392.4 711.4 392.6 710.5 392.6L697.1 392.6 697.1 392.6ZM697.5 365.3 697.5 392 710 392C711 392 711.8 392 712.5 392 712.7 392 713.1 392 713.5 391.8 713.9 391.8 714.1 391.8 714.3 391.6L714.3 391.6C714.9 391.4 715.3 391.4 715.7 391.2 716.7 390.8 717.4 390.2 718.2 389.5 718.6 389.1 718.8 388.7 719.2 388.1 719.6 387.3 719.8 386.6 720 385.6 720 385.2 720 385 720 384.8 720 384.2 720 383.6 719.8 383.1 719.6 382.1 719 381.2 718.4 380.4 717.8 379.8 717.2 379.2 716.3 378.7L715.9 378.5 716.3 378.3C717.1 377.9 717.7 377.5 718.2 376.8 718.6 376.4 719 376 719.2 375.4 719.6 374.6 719.8 373.9 720 372.9L720 372.1C720 371.5 720 370.9 719.8 370.4 719.6 369.4 719 368.5 718.4 367.7 717.8 366.9 716.8 366.3 715.7 365.8 715.1 365.6 714.7 365.4 714.1 365.4 713.5 365.4 712.9 365.2 712.4 365.2 711.4 365.2 710.4 365.2 709.5 365.2L697.5 365.3ZM698.5 391.1 698.5 366.3 709.4 366.3C710.6 366.3 711.5 366.3 712.3 366.3 712.9 366.3 713.5 366.5 714 366.5 714.4 366.5 715 366.7 715.4 366.9 716.4 367.3 717.2 367.9 717.7 368.4 718.3 369.2 718.7 369.9 718.9 370.7 718.9 371.3 719.1 371.7 719.1 372.2L719.1 373C719.1 373.8 718.9 374.5 718.5 375.1 718.3 375.5 717.9 375.9 717.7 376.3 717.1 376.9 716.7 377.3 715.9 377.5L713.8 378.7 715.9 379.9C716.7 380.3 717.3 380.7 717.9 381.3 718.5 382.1 718.9 382.8 719.1 383.6 719.3 384.2 719.3 384.6 719.3 385.1 719.3 385.3 719.3 385.7 719.3 385.9 719.3 386.7 718.9 387.4 718.7 388 718.5 388.4 718.1 388.8 717.9 389.2 717.3 389.8 716.5 390.4 715.8 390.7 715.4 390.9 715 390.9 714.6 391.1L714 390.9C713.8 390.9 713.8 390.9 713.6 390.9 713.2 390.9 712.8 390.9 712.8 390.9L712.6 390.9C711.8 390.9 711.1 391.1 710.1 391.1L698.5 391.1 698.5 391.1Z" fill="#FFFFFF"/><path d="M606.2 355.3 606.2 327.6 618.5 327.4C619.7 327.4 620.6 327.4 621.4 327.4 622.2 327.4 622.8 327.6 623.3 327.6 623.9 327.6 624.5 327.8 625.1 328.2 626.3 328.6 627.2 329.4 628 330.1 628.8 331.1 629.2 332 629.4 333 629.6 333.6 629.6 334.2 629.6 334.9L629.6 335.7C629.6 336.7 629.2 337.6 628.8 338.4 628.6 339 628.2 339.4 627.8 339.8 627.2 340.4 626.8 340.8 626 341.2 626.8 341.6 627.4 342.2 628 342.7 628.8 343.7 629.2 344.6 629.4 345.6 629.6 346.2 629.6 346.8 629.6 347.5 629.6 347.7 629.6 348.1 629.6 348.5 629.6 349.5 629.2 350.2 628.8 351.2 628.6 351.8 628.2 352.2 627.8 352.6 627 353.4 626.2 354 625.3 354.5 624.9 354.7 624.3 354.9 623.9 354.9 623.7 354.9 623.5 355.1 623.1 355.1 622.5 355.1 622.3 355.1 622.1 355.1 621.3 355.1 620.5 355.3 619.6 355.3L606.2 355.3 606.2 355.3ZM606.8 328.2 606.8 354.9 619.3 354.9C620.3 354.9 621 354.9 621.8 354.9 622 354.9 622.4 354.9 622.8 354.7 623.2 354.7 623.4 354.7 623.6 354.5L623.6 354.5C624.2 354.3 624.6 354.3 625 354.1 626 353.7 626.7 353.1 627.5 352.4 627.9 352 628.1 351.6 628.5 351 628.9 350.2 629.1 349.5 629.3 348.5 629.3 348.1 629.3 347.9 629.3 347.7 629.3 347.1 629.3 346.5 629.1 346 628.9 345 628.3 344.1 627.7 343.3 627.1 342.7 626.5 342.1 625.6 341.6L625.2 341.4 625.6 341.2C626.4 340.8 627 340.4 627.6 339.7 628 339.3 628.4 338.9 628.6 338.3 629 337.5 629.2 336.8 629.4 335.8L629.4 335C629.4 334.4 629.4 333.8 629.2 333.3 629 332.3 628.4 331.4 627.8 330.6 627.2 329.8 626.2 329.2 625.1 328.7 624.5 328.5 624.1 328.3 623.5 328.3 622.9 328.3 622.3 328.1 621.8 328.1 620.8 328.1 619.9 328.1 618.9 328.1L606.8 328.2ZM607.8 353.9 607.8 329.1 618.7 329.1C619.9 329.1 620.8 329.1 621.6 329.1 622.2 329.1 622.8 329.3 623.3 329.3 623.7 329.3 624.3 329.5 624.7 329.7 625.7 330.1 626.4 330.7 627 331.2 627.6 332 628 332.7 628.2 333.5 628.2 334.1 628.4 334.5 628.4 335L628.4 335.8C628.4 336.6 628.2 337.3 627.8 337.9 627.6 338.3 627.2 338.7 627 339.1 626.4 339.7 626 340.1 625.3 340.3L623.2 341.5 624.9 342.5C625.7 342.9 626.3 343.3 626.9 343.9 627.5 344.7 627.9 345.4 628.1 346.2 628.3 346.8 628.3 347.2 628.3 347.7 628.3 347.9 628.3 348.3 628.3 348.5 628.3 349.3 627.9 350 627.7 350.6 627.5 351 627.1 351.4 626.9 351.8 626.3 352.4 625.5 353 624.8 353.3 624.4 353.5 624 353.5 623.6 353.7L623.4 353.9C623.2 353.9 623.2 353.9 623 353.9 622.6 353.9 622.2 353.9 622.2 353.9L622 353.9C621.2 353.9 620.4 354.1 619.5 354.1L607.8 353.9Z" fill="#FFFFFF"/><path d="M748.5 392.4 721.4 392.4 734.8 364.5 748.5 392.4ZM722.4 392 747.9 392 735.1 365.9 722.4 392ZM746.4 391.1 723.8 391.1 735.1 368.1 746.4 391.1Z" fill="#FFFFFF"/><path d="M540.1 329.1C538.1 329.5 536.4 330.5 535 332.2 529.8 338.4 528 351.7 531.1 362.2 532.7 367.4 535.4 372.7 538.5 376.3 540.1 378 542.2 380.2 543.7 381.5 544.9 382.3 547.4 384 549 384.8 555 388.1 561.5 390 569.6 390.6 571.5 390.8 575.8 390.8 575.8 390.8 575.8 390.8 575.2 390.4 574.4 389.8 570.5 387.1 568.2 385.5 566.6 383.8 564.3 381.5 563.3 379.2 563.5 376.6 563.7 374.3 564.7 372.1 567 370 568.7 368.3 571.1 366.9 573 366.5L573.4 366.5 573.6 367.9C573.8 371.2 574.4 372.5 576.1 373.3 577.5 373.9 579.8 374.5 581.2 374.3 582.6 374.1 583.3 373.7 583.7 372.9 583.9 372.5 585.8 370.2 586 370.2 586 370.2 586.2 370.4 586.4 370.6 587.2 371.8 588.4 372.1 589.9 372 590.3 372 590.5 372 590.5 372 590.5 372.2 589.9 372.6 589.1 373.2L588.5 373.6 588.9 373.6C589.5 373.6 590.5 373.4 591 373.2 591.4 373 592.2 372.4 592.2 372.2 592.2 372 592.4 372 592.4 372.4 592.6 373 592.4 374.3 592 375.1 591.6 375.5 591.8 375.5 592.4 375.1 593.8 373.9 594.7 372.4 594.5 371 594.5 370.4 593.9 369.5 593.5 369.1 593.1 368.7 593.1 368.7 592.5 368.7 591.9 368.7 591.7 368.7 590.9 369.3 589.7 369.9 589.3 369.9 588.9 369.9 587.7 369.5 586.2 366.8 585.6 364.3 585.2 362.9 585.2 362.8 585.6 362.9 585.8 362.9 586 363.1 586.4 363.1 587 363.3 587 363.3 587.2 363.9 587.6 364.9 587.8 365.4 587.6 366.8L587.6 368 588 367.8C588.6 367.6 589.4 366.4 589.7 365.9 589.9 365.7 590.1 365.3 590.1 365.3 590.1 365.3 590.3 365.7 590.3 365.9 590.3 366.7 590.1 367.6 589.9 368 589.7 368.2 589.7 368.4 589.7 368.4 589.7 368.4 590.1 368.2 590.5 368 591.7 367.4 592.6 366.5 593.2 365.1 593.6 364.5 593.8 363.7 594 363.2L594.2 362.2 594.6 362C595.8 361.6 596.3 360.5 596.5 359.5 596.5 358.5 596.5 358.1 595.7 357.6 594.3 356.2 593.2 354.7 592.4 352.8 592.2 352.2 591.8 351.6 591.6 351.4L591.2 351 591.8 349.5C592.6 346.8 593 345.2 593 343.5 593 342.3 592.8 341.6 592.4 340.8 592 340.2 591.2 339.4 590.7 339.3 589.5 338.7 589.3 338.5 588.7 338.7 587.7 338.7 587.1 339.1 585.4 340.2 583.4 341.6 581.7 342.3 577.8 343.3L575.9 343.9 574.7 343.5C571 342 567.1 341 563 341L561.1 341 559.5 339.8C558.7 339.2 555.6 337.1 552.9 335 547.8 331.3 546.7 330.5 545.1 330 543.7 329.4 542.8 329.2 541.2 329.2 541.1 328.9 540.3 328.9 540.1 329.1ZM544.6 331.6C545.4 331.8 546.7 332.4 547.7 333.1 548.1 333.5 549.7 334.8 551 336.2 553.7 338.9 554.5 339.5 555.7 340.5 558.4 342.4 562.5 344.8 566.2 346.5 568.3 347.5 570.5 348.2 569.9 347.9 567.2 346.2 566 345.2 564.6 344 563.8 343.2 563.6 343 563.8 343 564 342.8 565.9 343 567.1 343 569.6 343.2 572.5 344.2 574.3 345.1L574.7 345.3 574.7 346.3C574.7 347.3 575.1 348 575.3 348.4L575.5 348.6 575.5 348C575.5 346.6 576.3 345.9 577.5 345.9 578.7 346.1 580 346.9 583.9 350 585.1 351 586.4 351.9 586.8 352.3 587.8 353.1 589.1 353.8 589.3 353.8 589.3 353.8 589.1 353.4 588.7 353 587.9 352.2 587.5 351.6 587.5 351.5 587.5 351.5 587.5 351.3 587.7 351.5 587.9 351.5 588.3 351.5 588.7 351.5L589.3 351.5 589.9 352.5C591.1 354.6 592.2 356.4 593.6 357.7 594.4 358.5 594.6 358.7 594.6 358.9 594.4 359.3 594.4 359.3 593.6 359.1 592.6 358.9 591.9 358.9 590.1 359.1 588.1 359.5 586.6 359.5 585.6 359.1 583.5 358.5 582.7 357.7 580.7 354.5 579.5 352.6 579 352 577.8 351.6 577 351.4 576.4 351.4 575.1 351.6 574.1 351.8 573.9 351.8 573.4 351.6 572.6 351.4 572 351.2 571.3 350.4L570.7 349.8 570.7 350.8C570.9 353.7 572.1 355.4 574.8 357 575.8 357.6 576.5 358.2 576.7 358.9 577.1 359.7 577.1 360.6 576.7 362.2 576.3 364.1 576.3 365.9 577.1 367.4 577.9 369.7 579.4 370.9 581.4 370.5 582 370.3 582.6 370.5 582.4 370.7 582.4 371.1 580.3 371.7 578.9 371.7 578.1 371.7 577.9 371.7 577.5 371.5 576.9 371.1 576.7 370.9 576.5 369.8 575.9 365.7 574.9 361.7 573.8 359.2 572.6 356.7 570.7 354.7 568.4 353.6 567.4 353.2 566.1 352.6 565.3 352.4 564.9 352.4 564.9 352.4 565.9 352.8 568.4 354.2 570.2 355.9 570.8 357.6L571 358 570.6 358C570 358 568.3 357.4 567.3 357 566.5 356.6 565 356 564.2 355.5 562.5 354.3 560.5 352.6 559.7 351.4 559.5 351 559.3 350.6 559.3 350.6 559.3 350.6 559.3 351 559.5 351.4 560.1 354.3 562.8 356.8 567.7 358.9 568.5 359.3 569.2 359.5 569.4 359.7 569.6 359.9 570 359.9 570 359.9 570 360.1 567.9 360.1 566.9 359.9 563.2 359.1 558.9 355.6 556.2 351 555.8 350.4 555.2 349.3 554.8 348.3 552.3 345 550.7 342.5 548.8 340.8 546.9 339.1 545.1 338.1 542.6 337.9 539.1 337.5 537.2 339.4 536.6 344.1 536.4 346 536.4 350.1 536.8 352.2L537.2 352.8 537.2 351.8C537.4 348.7 537.8 346.8 538.6 345.2 539.6 343.1 541.3 342.1 543.5 342.3 545.5 342.5 547.6 344.8 549.3 348.5 549.7 349.3 550.3 350.2 550.3 350.8L550.7 351.6 550.1 352.4C547 356.5 545 363.2 545 370.8 545 374.5 545.4 376.2 546.7 379.3 547.1 380.1 547.1 380.3 546.9 380.3 546.7 380.3 545.3 377.8 544.8 376 543 370.8 542.5 364.8 543.6 359.9 544.2 357.2 545.3 354.5 546.3 352.9 546.5 352.5 546.7 352.3 546.7 352.3 546.7 352.1 545.3 353.3 544.6 354 543 355.7 541.7 358.1 540.7 360.8 540.1 362.7 539.5 365.1 539.5 366.8 539.5 367.4 539.5 367.8 539.5 368 539.5 368.2 538.1 366.5 537.4 364.9 534.5 359.3 533.1 350.8 534.1 345.4 534.5 343.9 534.7 342.3 535.3 340.8 537.1 335.2 539.6 331.9 542.5 331.5 542.8 331.5 543.8 331.5 544.6 331.6ZM589.9 340.9C589.9 341.1 590.1 341.7 590.1 342.3 590.3 344.4 589.7 346.9 588.5 349.5L588.1 350.3 587.1 350.3 586.1 350.3 585.5 349.9C585.1 349.5 584.5 349.1 584.1 348.7L583.5 348.1 584.1 347.5C584.7 346.9 585.1 346.3 585.3 345.4 585.3 345.2 585.3 345 585.3 345 585.3 345 585.1 345.2 584.9 345.4 583.7 346.6 582.4 346.8 580 345.6 579.6 345.4 579 345.2 579 345.2 579 345.2 579.2 345 579.6 345 581.6 344.6 584.7 343.1 587.6 341.3 589.3 340.5 589.7 340.4 589.9 340.9ZM577.4 353.3C577.6 353.3 577.8 353.5 577.8 353.5 577.8 353.5 577.6 353.7 577.2 353.9 576.6 354.1 575.1 355.1 575.3 355.1 575.3 355.1 575.7 355.1 576.1 354.9 577.5 354.5 578.6 354.3 579.2 354.7 579.6 354.9 580.2 355.5 580.4 356.1L580.6 356.7 579.6 356.7C578.8 356.7 578.6 356.7 577.8 356.9 577.4 357.1 576.8 357.3 576.8 357.3 576.6 357.3 576.4 357.5 576.4 357.5 576.2 357.5 576.6 356.7 577 356.3 577.2 356.3 577.4 356.1 577.8 355.9L578.4 355.7 578 355.7C577.4 355.7 576.3 355.7 575.5 356.1 575.1 356.3 574.9 356.3 574.5 356.1 573.5 355.9 573.5 355.5 574.1 354.9L574.5 354.5 573.9 354.5C573.1 354.5 572.5 354.3 572.3 353.9 572.1 353.5 572.1 353.5 572.3 353.7 572.9 353.9 573.3 354.1 574.1 354.1 574.7 354.1 575.3 354.1 576 353.9 576.9 353.1 577.1 353.1 577.4 353.3ZM559.1 358.2C560.7 359.6 562.8 360.7 565.9 361.5L566.5 361.7 565.9 361.9C564.3 362.3 563.4 362.9 561.8 364.4L560.6 365.6 559.6 365.6C557.3 365.4 555.1 364.8 553.2 363.5 552.4 362.9 550.7 361.4 550.1 360.4 549.7 359.6 549.1 358.7 549.1 358.7 549.1 358.7 549.5 358.9 549.9 359.5 552.4 362 555.1 363.6 557.9 364.1 558.9 364.3 559.3 364.3 559.1 364.3 558.7 364.1 557.9 363.7 557.7 363.3 557.1 362.7 556.9 362.3 557.1 361.4 557.1 360.8 557.3 360.4 557.5 360 557.9 359 558.5 357.9 558.5 357.9 558.4 357.6 558.8 357.8 559.1 358.2ZM588.9 360.5C589.1 360.7 589.1 360.7 589.1 361.5 589.1 362.1 589.1 362.5 588.7 363L588.3 363.6 588.1 362.8C588.1 362.4 587.9 361.8 587.7 361.4L587.5 360.8 587.9 360.6C588.5 360.5 588.7 360.5 588.9 360.5ZM550.2 362.8C552.5 365.1 555.6 366.3 560.3 367.1 560.5 367.1 560.7 367.1 560.7 367.1 560.7 367.1 560.7 367.5 560.5 367.9 560.3 369.1 560.1 370.6 560.1 373.1L560.1 375.4 558.5 375.4C554.8 375.2 551.7 374.4 549.6 373.1 548.2 372.3 547.1 371 548.2 371.6 550 372.6 552.9 373.5 555.6 373.7 557 373.9 557 373.9 556.2 373.5 555.8 373.3 555.2 373.1 555.2 372.9L554.8 372.5 555 370.4C555.2 369.2 555.2 368.1 555.2 367.9L555.2 367.5 554.4 367.1C552.1 365.9 549.7 363.8 549.1 362.6 548.9 362 548.7 361.8 548.9 361.8 549.2 362 549.6 362.4 550.2 362.8ZM591.8 362.8C591.8 363.4 591.8 363.6 591.6 364 591.4 364.4 591.2 364.6 591.2 364.6 591.2 364.6 591 364.4 591 364.2 591 364 591 363.4 590.8 363.2 590.6 362.6 590.6 362.6 590.8 362.4 591 362.2 591 362.2 591.4 362.2L591.8 362.2 591.8 362.8 591.8 362.8ZM569.9 364C570.5 364 571.1 364.2 571.1 364.2 571.1 364.2 570.7 364.6 570.1 365 566.6 367.3 563.5 370.4 562.3 373.1 561.9 374.1 561.7 373.9 561.9 371.9 562.3 367.3 563.9 364.7 566.8 364 567.5 364 568.3 364 569.9 364ZM583.7 365.5C584.5 365.9 585.1 366.7 585.3 367.2 585.3 367.4 585.3 367.6 584.5 368.2 583.5 369 583.3 369 583.5 368.6 583.5 368.4 583.9 366.9 583.9 366.7 583.9 366.7 583.7 366.7 583.3 366.9 582.7 367.1 581.6 367.3 581.6 367.1 581.6 367.1 581.8 366.7 582 366.1 582.9 365.1 582.9 365.1 583.7 365.5ZM581.9 369C581.7 369.6 581.1 370.2 580.7 370.2 580.3 370.4 580.1 370.2 579.7 369.8 579.3 369.4 579.3 369.2 579.7 369.2 580.3 369.2 580.9 369 581.4 368.6 581.6 368.4 582 368.2 582 368.4 582.1 368.6 581.9 368.8 581.9 369ZM583.5 370.4C583.5 370.4 583.5 370.6 583.3 370.6 583.1 370.8 582.7 371 582.7 370.6 582.9 370.5 583.5 370.4 583.5 370.4ZM557.8 376.9C559.2 377.3 560.3 377.3 560.3 377.5 560.3 377.5 560.5 377.9 560.7 378.3 562.8 382.2 565.4 385.7 567.1 387L567.9 387.6 566.9 387.6C563.6 387.6 557.9 386.4 554.1 384.9 552 383.9 550 382.8 549.4 382 549 381.6 549.2 381.4 549.6 381.6 550 382 552.1 383 552.9 383.1 554.6 383.9 557.4 384.5 558.9 384.6L559.5 384.6 558.9 384.2C556.8 382.7 555.2 380.9 554.8 379.4 554.6 378.8 554.4 376.9 554.6 376.7 554.6 376.5 554.8 376.5 555 376.5 555.1 376.5 556.4 376.7 557.8 376.9Z" fill="#FFFFFF"/><path d="M581.5 349.5C581.1 349.7 580.9 351.2 581.1 352.2L581.1 352.4 581.1 352C581.3 351.2 581.3 351.2 581.5 351 581.7 351 581.9 351.2 582.7 352L583.7 353 583.7 353.8C583.7 354.6 583.9 355.2 584.3 355.7 584.5 355.9 584.5 356.1 584.5 356.1 584.5 356.1 583.7 355.7 583.1 355.3L582.7 354.9 583.1 355.5C583.7 356.7 584.5 357.2 585.4 357.2 586 357.2 587.2 357 587.7 356.8 587.9 356.6 588.3 356.6 588.9 356.6L589.7 356.6 589.3 356.4C589.1 356.2 588.7 356 588.7 356 587.7 355.2 585.8 353.3 584 351.2 582.8 349.8 582 349.1 581.9 349.1 581.7 349.5 581.7 349.5 581.5 349.5ZM585.6 355.1C586 355.5 586.2 355.9 586.2 355.9 586.2 355.9 585.8 355.9 585.6 355.9 585.4 355.9 585.2 355.7 585.2 355.5 585 355.1 584.8 354.5 585 354.5 585 354.3 585.4 354.7 585.6 355.1Z" fill="#FFFFFF"/></g></svg>